{"asset":{"version":"2.0","generator":"THREE.GLTFExporter"},"scenes":[{"name":"AuxScene","nodes":[9]}],"scene":0,"nodes":[{"mesh":0},{"matrix":[1,0,0,0,0,1,0,0,0,0,1,0,200,200,300,1],"extensions":{"KHR_lights_punctual":{"light":0}}},{"name":"Belt004_Belt_Mesh","mesh":1},{"children":[2]},{"name":"Eyes005_Eyes_Mesh","mesh":2},{"children":[4]},{"name":"BaseBody_Head_Mesh","mesh":3},{"name":"BaseBody_Body_Mesh","mesh":4},{"children":[6,7]},{"children":[0,1,3,5,8]}],"bufferViews":[{"buffer":0,"byteOffset":0,"byteLength":72,"target":34962,"byteStride":12},{"buffer":0,"byteOffset":72,"byteLength":72,"target":34962,"byteStride":12},{"buffer":0,"byteOffset":144,"byteLength":123264,"target":34962,"byteStride":12},{"buffer":0,"byteOffset":123408,"byteLength":123264,"target":34962,"byteStride":12},{"buffer":0,"byteOffset":246672,"byteLength":82176,"target":34962,"byteStride":8},{"buffer":0,"byteOffset":328848,"byteLength":92880,"target":34962,"byteStride":12},{"buffer":0,"byteOffset":421728,"byteLength":92880,"target":34962,"byteStride":12},{"buffer":0,"byteOffset":514608,"byteLength":61920,"target":34962,"byteStride":8},{"buffer":0,"byteOffset":576528,"byteLength":110592,"target":34962,"byteStride":12},{"buffer":0,"byteOffset":687120,"byteLength":110592,"target":34962,"byteStride":12},{"buffer":0,"byteOffset":797712,"byteLength":73728,"target":34962,"byteStride":8},{"buffer":0,"byteOffset":871440,"byteLength":244800,"target":34962,"byteStride":12},{"buffer":0,"byteOffset":1116240,"byteLength":244800,"target":34962,"byteStride":12},{"buffer":0,"byteOffset":1361040,"byteLength":163200,"target":34962,"byteStride":8}],"buffers":[{"byteLength":1524240,"uri":"data:application/octet-stream;base64,"}],"accessors":[{"bufferView":0,"componentType":5126,"count":6,"max":[5,5,5],"min":[0,0,0],"type":"VEC3"},{"bufferView":1,"componentType":5126,"count":6,"max":[1,1,1],"min":[0,0,0],"type":"VEC3"},{"bufferView":2,"componentType":5126,"count":10272,"max":[8.328897476196289,14.73867416381836,5.237544059753418],"min":[-8.328899383544922,10.534828186035156,-6.28551721572876],"type":"VEC3"},{"bufferView":3,"componentType":5126,"count":10272,"max":[0.9997644424438477,0.9862063527107239,0.9999927282333374],"min":[-0.9997643828392029,-0.9797178506851196,-0.9997909069061279],"type":"VEC3"},{"bufferView":4,"componentType":5126,"count":10272,"max":[0.9439175128936768,0.99755859375],"min":[0.00244140625,0.00244140625],"type":"VEC2"},{"bufferView":5,"componentType":5126,"count":7740,"max":[11.909405708312988,42.283843994140625,14.69987678527832],"min":[-11.909405708312988,29.258209228515625,10.319707870483398],"type":"VEC3"},{"bufferView":6,"componentType":5126,"count":7740,"max":[0.999733567237854,0.9970394372940063,0.9999343156814575],"min":[-0.9999994039535522,-0.9997583031654358,-0.6430370807647705],"type":"VEC3"},{"bufferView":7,"componentType":5126,"count":7740,"max":[0.9705963134765625,0.9611719846725464],"min":[0.006654500961303711,0.04151085019111633],"type":"VEC2"},{"bufferView":8,"componentType":5126,"count":9216,"max":[15.815877914428711,49.385475158691406,14.020583152770996],"min":[-15.815877914428711,19.99628257751465,-13.63034439086914],"type":"VEC3"},{"bufferView":9,"componentType":5126,"count":9216,"max":[0.999983012676239,0.999983012676239,0.9999913573265076],"min":[-0.999983012676239,-0.9999384880065918,-0.9999995231628418],"type":"VEC3"},{"bufferView":10,"componentType":5126,"count":9216,"max":[0.965237021446228,0.655693769454956],"min":[0.01220703125,0.021376483142375946],"type":"VEC2"},{"bufferView":11,"componentType":5126,"count":20400,"max":[17.98968505859375,22.924835205078125,3.909257411956787],"min":[-17.98968505859375,0.2611260414123535,-4.672211647033691],"type":"VEC3"},{"bufferView":12,"componentType":5126,"count":20400,"max":[0.9999266266822815,0.9998788237571716,0.9999752640724182],"min":[-0.9999266266822815,-1,-0.9994450211524963],"type":"VEC3"},{"bufferView":13,"componentType":5126,"count":20400,"max":[0.9912199974060059,0.9724100232124329],"min":[0.00892999954521656,0.012199999764561653],"type":"VEC2"}],"materials":[{"pbrMetallicRoughness":{"metallicFactor":0.5,"roughnessFactor":0.5}},{"pbrMetallicRoughness":{"baseColorFactor":[0.6307571363387763,0.2663556047920505,0.008568125615105716,1],"metallicFactor":0.5,"roughnessFactor":0.5}},{"pbrMetallicRoughness":{"metallicFactor":0.5,"roughnessFactor":0.5,"baseColorTexture":{"index":0,"texCoord":0}}},{"pbrMetallicRoughness":{"baseColorFactor":[0,0.9911020971136257,0.8069522576650873,1],"metallicFactor":0.5,"roughnessFactor":0.5}}],"meshes":[{"primitives":[{"mode":1,"attributes":{"POSITION":0,"COLOR_0":1},"material":0}]},{"primitives":[{"mode":4,"attributes":{"POSITION":2,"NORMAL":3,"TEXCOORD_0":4},"material":1}]},{"primitives":[{"mode":4,"attributes":{"POSITION":5,"NORMAL":6,"TEXCOORD_0":7},"material":2}]},{"primitives":[{"mode":4,"attributes":{"POSITION":8,"NORMAL":9,"TEXCOORD_0":10},"material":3}]},{"primitives":[{"mode":4,"attributes":{"POSITION":11,"NORMAL":12,"TEXCOORD_0":13},"material":3}]}],"extensions":{"KHR_lights_punctual":{"lights":[{"color":[1,1,1],"intensity":1,"type":"point"}]}},"textures":[{"sampler":0,"source":0}],"samplers":[{"magFilter":9729,"minFilter":9987,"wrapS":33071,"wrapT":33071}],"images":[{"mimeType":"image/png","uri":"data:image/png;base64,"}],"extensionsUsed":["KHR_lights_punctual"]}